<?xml version="1.0" encoding="UTF-8"?>
<svg id="Calque_2" data-name="Calque 2" xmlns="http://www.w3.org/2000/svg" viewBox="0 0 190.64 86.55">
  <defs>
    <style>
      .cls-1 {
        stroke: #fff;
        stroke-width: 3.11px;
      }

      .cls-1, .cls-2, .cls-3, .cls-4 {
        fill: none;
      }

      .cls-2 {
        stroke-width: .35px;
      }

      .cls-2, .cls-3, .cls-5, .cls-4, .cls-6, .cls-7, .cls-8 {
        stroke: #1d1d1b;
      }

      .cls-9, .cls-5, .cls-6, .cls-7, .cls-8 {
        fill: #fff;
      }

      .cls-3 {
        stroke-width: .32px;
      }

      .cls-5 {
        stroke-width: .26px;
      }

      .cls-4, .cls-8 {
        stroke-width: .39px;
      }

      .cls-6 {
        stroke-width: .21px;
      }

      .cls-7 {
        stroke-width: .16px;
      }
    </style>
  </defs>
  <g id="Calque_2-2" data-name="Calque 2">
    <g>
      <path class="cls-9" d="M0,35.86h8.32v14.92h7.18v6.43H0v-21.36ZM28.78,57.74c-1.51,0-2.97-.26-4.39-.79-1.41-.53-2.68-1.3-3.81-2.29-1.12-.99-2.01-2.18-2.67-3.56-.66-1.39-.99-2.94-.99-4.65s.31-3.2.92-4.57c.62-1.37,1.48-2.55,2.58-3.54,1.1-.99,2.36-1.75,3.78-2.27,1.44-.53,2.96-.8,4.57-.8,1.69,0,3.27.26,4.73.78,1.47.51,2.75,1.25,3.85,2.23,1.11.97,1.97,2.16,2.58,3.56.62,1.39.94,2.97.94,4.73s-.33,3.26-.98,4.64c-.65,1.37-1.54,2.55-2.67,3.52-1.13.97-2.42,1.72-3.88,2.25-1.44.52-2.97.78-4.57.78ZM27.84,50.79c.47,0,.98-.23,1.51-.68.53-.46,1.04-1.05,1.51-1.77.47-.71.86-1.47,1.15-2.26.3-.79.45-1.52.45-2.19,0-.62-.16-1.14-.49-1.55-.33-.41-.89-.62-1.67-.62-.48,0-1,.23-1.55.68-.54.45-1.06,1.03-1.54,1.74-.47.7-.86,1.45-1.16,2.25-.3.78-.45,1.51-.45,2.18s.17,1.17.51,1.59c.35.42.93.63,1.74.63ZM54.75,57.74c-1.51,0-2.97-.26-4.39-.79-1.41-.53-2.68-1.3-3.81-2.29-1.12-.99-2.01-2.18-2.67-3.56-.66-1.39-.99-2.94-.99-4.65s.31-3.2.92-4.57c.62-1.37,1.48-2.55,2.58-3.54,1.1-.99,2.36-1.75,3.78-2.27,1.44-.53,2.96-.8,4.57-.8,1.69,0,3.27.26,4.73.78,1.47.51,2.75,1.25,3.85,2.23,1.11.97,1.97,2.16,2.58,3.56.62,1.39.94,2.97.94,4.73s-.33,3.26-.98,4.64c-.65,1.37-1.54,2.55-2.67,3.52-1.13.97-2.43,1.72-3.88,2.25-1.44.52-2.97.78-4.57.78ZM53.81,50.79c.47,0,.98-.23,1.51-.68.53-.46,1.04-1.05,1.51-1.77.47-.71.86-1.47,1.15-2.26.3-.79.45-1.52.45-2.19,0-.62-.16-1.14-.49-1.55-.33-.41-.89-.62-1.67-.62-.48,0-1,.23-1.55.68-.54.45-1.06,1.03-1.54,1.74-.47.7-.86,1.45-1.16,2.25-.3.78-.45,1.51-.45,2.18s.17,1.17.51,1.59c.35.42.93.63,1.74.63ZM80.15,35.26c2.49,0,4.5.29,6.04.88,1.55.59,2.69,1.52,3.41,2.79.72,1.27,1.08,2.95,1.08,5.03,0,1.39-.26,2.67-.79,3.82-.52,1.15-1.23,2.14-2.15,2.98-.92.84-1.99,1.49-3.21,1.95-1.21.45-2.51.68-3.9.68-.36,0-.73,0-1.11-.03-.37-.02-.8-.03-1.27-.03v3.86h-8.73v-21.3c2.08-.2,3.99-.37,5.75-.48,1.76-.12,3.38-.17,4.88-.17ZM81.56,40.81c-.31,0-.66.08-1.06.24-.38.16-.75.35-1.11.56-.35.21-.64.39-.87.55-.22.16-.33.24-.33.24v5.04l1.56-.76c.9-.45,1.68-.99,2.33-1.64.66-.66.99-1.51.99-2.55,0-.45-.13-.83-.4-1.16-.26-.34-.63-.51-1.11-.51Z"/>
      <g>
        <path class="cls-9" d="M149.12,3.16c5.45,0,10.85,1.07,15.89,3.16,5.04,2.09,9.61,5.14,13.47,9,3.85,3.85,6.91,8.43,9,13.47,2.09,5.04,3.16,10.44,3.16,15.89s-1.07,10.85-3.16,15.89c-2.09,5.04-5.14,9.61-9,13.47-3.86,3.85-8.43,6.91-13.47,9-5.04,2.09-10.43,3.16-15.89,3.16v-22.55c10.47,0,18.96-8.49,18.96-18.96s-8.49-18.96-18.96-18.96V3.16Z"/>
        <path class="cls-4" d="M175.65,16.58c3.48,3.57,6.29,7.94,8.25,12.78,1.96,4.84,3,10.04,3.06,15.24s-.86,10.25-2.69,14.82c-1.84,4.57-4.55,8.53-7.94,11.62"/>
        <path class="cls-2" d="M173.75,19.13c3.14,3.22,5.67,7.15,7.44,11.52,1.76,4.36,2.7,9.05,2.76,13.73.06,4.68-.77,9.24-2.43,13.36-1.65,4.12-4.1,7.69-7.15,10.47"/>
        <path class="cls-3" d="M172.03,21.43c2.82,2.9,5.11,6.45,6.7,10.38,1.59,3.93,2.44,8.16,2.49,12.38.05,4.22-.7,8.33-2.19,12.04-1.49,3.71-3.69,6.93-6.45,9.44"/>
        <path class="cls-5" d="M170.65,24.95c2.35,2.42,4.25,5.36,5.57,8.64,1.32,3.27,2.03,6.79,2.07,10.3.04,3.51-.58,6.93-1.82,10.02-1.24,3.09-3.07,5.77-5.36,7.85"/>
        <path class="cls-6" d="M169.11,28.57c1.87,1.92,3.37,4.25,4.42,6.85,1.05,2.59,1.61,5.38,1.64,8.17.03,2.78-.46,5.5-1.44,7.94-.98,2.45-2.44,4.57-4.25,6.23"/>
        <path class="cls-7" d="M167.91,31.95c1.41,1.45,2.55,3.22,3.34,5.18.79,1.96,1.22,4.07,1.24,6.17.03,2.1-.35,4.15-1.09,6-.75,1.85-1.84,3.46-3.22,4.71"/>
        <circle class="cls-8" cx="149.12" cy="44.44" r="1.83"/>
        <path class="cls-1" d="M150.88,80.33v1.26c0,1.88-1.52,3.4-3.4,3.4s-3.4-1.52-3.4-3.4V4.67c0-1.72-1.39-3.11-3.11-3.11s-3.11,1.39-3.11,3.11v72.55c0,1.72-1.39,3.11-3.11,3.11s-3.11-1.39-3.11-3.11V9.53c0-1.72-1.39-3.11-3.11-3.11s-3.11,1.39-3.11,3.11v61.66c0,1.72-1.39,3.11-3.11,3.11s-3.11-1.39-3.11-3.11V22.37c0-1.72-1.39-3.11-3.11-3.11s-3.11,1.39-3.11,3.11v34.43c0,1.72-1.39,3.11-3.11,3.11s-3.11-1.39-3.11-3.11v-13.03c0-1.07-.87-1.94-1.94-1.94h-9.53"/>
      </g>
    </g>
  </g>
</svg>