<svg width="66" height="54" viewBox="0 0 66 54" fill="none" xmlns="http://www.w3.org/2000/svg">
<g id="fa-solid:user-friends">
<path id="Vector" d="M19.8 27C26.1834 27 31.35 21.8139 31.35 15.4062C31.35 8.99863 26.1834 3.8125 19.8 3.8125C13.4166 3.8125 8.25 8.99863 8.25 15.4062C8.25 21.8139 13.4166 27 19.8 27ZM27.72 30.3125H26.8641C24.7191 31.3477 22.3369 31.9688 19.8 31.9688C17.2631 31.9688 14.8912 31.3477 12.7359 30.3125H11.88C5.32125 30.3125 0 35.6539 0 42.2375V45.2188C0 47.9619 2.21719 50.1875 4.95 50.1875H34.65C37.3828 50.1875 39.6 47.9619 39.6 45.2188V42.2375C39.6 35.6539 34.2787 30.3125 27.72 30.3125ZM49.5 27C54.9656 27 59.4 22.5488 59.4 17.0625C59.4 11.5762 54.9656 7.125 49.5 7.125C44.0344 7.125 39.6 11.5762 39.6 17.0625C39.6 22.5488 44.0344 27 49.5 27ZM54.45 30.3125H54.0581C52.6247 30.8094 51.1087 31.1406 49.5 31.1406C47.8913 31.1406 46.3753 30.8094 44.9419 30.3125H44.55C42.4463 30.3125 40.5075 30.9232 38.8059 31.9066C41.3222 34.6291 42.9 38.2418 42.9 42.2375V46.2125C42.9 46.4402 42.8484 46.6576 42.8381 46.875H61.05C63.7828 46.875 66 44.6494 66 41.9062C66 35.4986 60.8334 30.3125 54.45 30.3125Z" fill="white"/>
</g>
</svg>
