<svg width="32" height="32" viewBox="0 0 32 32" fill="none" xmlns="http://www.w3.org/2000/svg">
<g id="Group">
<path id="Vector" d="M16 0.640045C11.8285 0.640045 11.3054 0.657727 9.66711 0.732478C8.03223 0.807107 6.91566 1.06672 5.93859 1.44645C4.92854 1.83899 4.07195 2.36419 3.21805 3.2181C2.36414 4.072 1.83894 4.92859 1.4464 5.93864C1.06667 6.91565 0.807055 8.03222 0.732426 9.6671C0.657675 11.3054 0.640055 11.8285 0.640055 16C0.640055 20.1715 0.657675 20.6946 0.732426 22.3329C0.807055 23.9678 1.06667 25.0843 1.4464 26.0613C1.83894 27.0714 2.36414 27.928 3.21805 28.7819C4.07195 29.6358 4.92854 30.1611 5.93859 30.5536C6.91566 30.9333 8.03223 31.1929 9.66711 31.2675C11.3054 31.3423 11.8285 31.3599 16 31.3599C20.1715 31.3599 20.6946 31.3423 22.3329 31.2675C23.9678 31.1929 25.0843 30.9333 26.0613 30.5536C27.0714 30.1611 27.928 29.6358 28.782 28.7819C29.6359 27.928 30.1611 27.0714 30.5536 26.0613C30.9333 25.0843 31.1929 23.9678 31.2675 22.3329C31.3423 20.6946 31.3599 20.1715 31.3599 16C31.3599 11.8285 31.3423 11.3054 31.2675 9.6671C31.1929 8.03222 30.9333 6.91565 30.5536 5.93864C30.1611 4.92859 29.6359 4.072 28.782 3.2181C27.928 2.36419 27.0714 1.83899 26.0613 1.44645C25.0843 1.06672 23.9678 0.807107 22.3329 0.732478C20.6946 0.657727 20.1715 0.640045 16 0.640045ZM16 3.40766C20.1013 3.40766 20.5871 3.42327 22.2067 3.49716C23.7043 3.56551 24.5176 3.81574 25.0589 4.02603C25.7758 4.30467 26.2875 4.63757 26.825 5.17504C27.3625 5.7125 27.6953 6.22423 27.974 6.94113C28.1843 7.48238 28.4345 8.29567 28.5028 9.79325C28.5767 11.4129 28.5924 11.8987 28.5924 16C28.5924 20.1013 28.5767 20.5871 28.5028 22.2067C28.4345 23.7043 28.1843 24.5176 27.974 25.0588C27.6953 25.7758 27.3625 26.2875 26.825 26.8249C26.2875 27.3625 25.7758 27.6953 25.0589 27.9739C24.5176 28.1843 23.7043 28.4345 22.2067 28.5028C20.5873 28.5767 20.1016 28.5924 16 28.5924C11.8984 28.5924 11.4127 28.5767 9.79326 28.5028C8.29568 28.4345 7.48239 28.1843 6.94114 27.9739C6.22418 27.6953 5.71251 27.3625 5.17499 26.8249C4.63752 26.2875 4.30462 25.7758 4.02604 25.0588C3.81569 24.5176 3.56546 23.7043 3.49711 22.2067C3.42322 20.5871 3.40761 20.1013 3.40761 16C3.40761 11.8987 3.42322 11.4129 3.49711 9.79325C3.56546 8.29567 3.81569 7.48238 4.02604 6.94113C4.30462 6.22423 4.63752 5.7125 5.17499 5.17504C5.71251 4.63757 6.22418 4.30467 6.94114 4.02603C7.48239 3.81574 8.29568 3.56551 9.79326 3.49716C11.4129 3.42327 11.8987 3.40766 16 3.40766Z" fill="white"/>
<path id="Vector_2" d="M16 21.12C13.1723 21.12 10.88 18.8277 10.88 16C10.88 13.1723 13.1723 10.88 16 10.88C18.8277 10.88 21.12 13.1723 21.12 16C21.12 18.8277 18.8277 21.12 16 21.12ZM16 8.11246C11.6438 8.11246 8.11246 11.6438 8.11246 16C8.11246 20.3562 11.6438 23.8875 16 23.8875C20.3562 23.8875 23.8875 20.3562 23.8875 16C23.8875 11.6438 20.3562 8.11246 16 8.11246Z" fill="white"/>
<path id="Vector_3" d="M26.0424 7.80084C26.0424 8.81882 25.2171 9.644 24.1992 9.644C23.1812 9.644 22.356 8.81882 22.356 7.80084C22.356 6.78286 23.1812 5.95767 24.1992 5.95767C25.2171 5.95767 26.0424 6.78286 26.0424 7.80084Z" fill="white"/>
</g>
</svg>
