<svg width="62" height="62" viewBox="0 0 62 62" fill="none" xmlns="http://www.w3.org/2000/svg">
<g id="ion:mic-sharp">
<path id="Vector" d="M23.25 54.25H38.75M46.5 25.1875V29.0625C46.5 37.5875 39.525 44.5625 31 44.5625M31 44.5625C22.475 44.5625 15.5 37.5875 15.5 29.0625V25.1875M31 44.5625V54.25" stroke="white" stroke-miterlimit="10" stroke-linecap="square"/>
<path id="Vector_2" d="M31 38.75C29.7213 38.747 28.4562 38.4871 27.2799 37.9858C26.1036 37.4845 25.0399 36.752 24.1522 35.8317C22.3349 33.9987 21.3144 31.5226 21.3125 28.9414V15.5C21.3075 14.2264 21.5547 12.9645 22.0398 11.7869C22.5249 10.6093 23.2383 9.53941 24.1388 8.63885C25.0394 7.73829 26.1093 7.0249 27.2869 6.53982C28.4645 6.05473 29.7264 5.80755 31 5.81251C36.4323 5.81251 40.6875 10.0677 40.6875 15.5V28.9414C40.6875 34.3495 36.3415 38.75 31 38.75Z" fill="white"/>
</g>
</svg>
