<svg width="88" height="88" viewBox="0 0 88 88" fill="none" xmlns="http://www.w3.org/2000/svg">
<g id="twemoji:envelope" clip-path="url(#clip0_200_291)">
<path id="Vector" d="M74.636 69.4094C74.1488 71.487 72.8562 73.286 71.0426 74.4106C69.2291 75.5352 67.043 75.8933 64.9654 75.4061L10.1298 62.5477C8.0522 62.0606 6.25321 60.768 5.1286 58.9544C4.00399 57.1408 3.64589 54.9548 4.13307 52.8772L12.3992 17.6257C12.8864 15.5481 14.1789 13.7491 15.9925 12.6245C17.8061 11.4999 19.9921 11.1418 22.0697 11.629L76.9053 24.4874C78.9829 24.9745 80.7819 26.2671 81.9065 28.0807C83.0311 29.8943 83.3892 32.0803 82.9021 34.1579L74.636 69.4094Z" fill="#CCD6DD"/>
<path id="Vector_2" d="M31.8363 40.0264L4.48554 56.9866C4.41981 57.0291 4.38415 57.093 4.32625 57.1373C4.73035 58.4097 5.44142 59.5537 6.40112 60.4833C6.46848 60.4516 6.53966 60.4476 6.60493 60.4071L33.9581 43.4454C34.4115 43.164 34.7346 42.714 34.8562 42.1945C34.9778 41.6749 34.8881 41.1283 34.6067 40.675C34.3254 40.2216 33.8754 39.8985 33.3559 39.7769C32.8363 39.6552 32.2897 39.745 31.8363 40.0264ZM72.5691 73.1396C72.5409 73.0751 72.5334 73.001 72.4929 72.9358L55.5351 45.5835C55.3959 45.3589 55.2139 45.1639 54.9994 45.0097C54.7849 44.8554 54.5421 44.7449 54.2848 44.6845C54.0276 44.6241 53.761 44.615 53.5003 44.6576C53.2395 44.7002 52.9897 44.7938 52.7651 44.9329C52.5405 45.0721 52.3456 45.2541 52.1913 45.4686C52.0371 45.6831 51.9266 45.9259 51.8662 46.1832C51.8058 46.4404 51.7966 46.707 51.8392 46.9677C51.8819 47.2285 51.9754 47.4783 52.1146 47.7029L69.0744 75.0556C69.1134 75.1185 69.1788 75.1565 69.2231 75.2144C70.4931 74.8106 71.6428 74.0976 72.5691 73.1396Z" fill="white"/>
<path id="Vector_3" d="M76.9053 24.4874L22.0697 11.629C19.9921 11.1418 17.8061 11.4999 15.9925 12.6245C14.1789 13.7491 12.8864 15.5481 12.3992 17.6257L11.9262 19.6429L33.721 54.7037C35.0941 56.9056 37.2831 58.4742 39.8095 59.0666C42.3359 59.659 44.994 59.227 47.2028 57.865L82.4387 36.134L82.9021 34.1579C83.3892 32.0803 83.0311 29.8943 81.9065 28.0807C80.7819 26.2671 78.9829 24.9745 76.9053 24.4874Z" fill="white"/>
<path id="Vector_4" d="M76.9053 24.4874L22.0697 11.629C20.5948 11.2861 19.0529 11.3675 17.6222 11.8637C16.1915 12.36 14.9303 13.2509 13.9845 14.4334L36.121 50.1343C36.6779 51.0323 37.4061 51.8119 38.2643 52.4285C39.1224 53.045 40.0936 53.4866 41.1223 53.7278C42.1511 53.969 43.2173 54.0053 44.2601 53.8344C45.3028 53.6636 46.3017 53.289 47.1998 52.7322L82.9011 30.5937C82.5795 29.1139 81.8459 27.7553 80.7849 26.6747C79.724 25.5942 78.379 24.8359 76.9053 24.4874Z" fill="white"/>
</g>
<defs>
<clipPath id="clip0_200_291">
<rect width="72.4153" height="72.4153" fill="white" transform="translate(16.5322) rotate(13.1968)"/>
</clipPath>
</defs>
</svg>
